# xmcd CD database file
#
# Track frame offsets:
#	150
#	22242
#	42045
#	57915
#	75112
#	89565
#	107522
#	126292
#	143802
#	164572
#
# Disc length: 2439 seconds
#
# Revision: 0
# Processed by: cddbd v1.5.1PL2 Copyright (c) Steve Scherf et al.
# Submitted via: CDex 1.50
#
DISCID=7e09850a
DTITLE=5 SAXOPHONES - 5 SAXOPHONES
DYEAR=2005
DGENRE=Jazz
TTITLE0=Love me or leave me
TTITLE1=Taking a chance on love
TTITLE2=As time goes by
TTITLE3=Lady is a tranp
TTITLE4=Don't be that way
TTITLE5=The continental
TTITLE6=Just in time
TTITLE7=Imagination
TTITLE8=It's all right with me
TTITLE9=On the street where you live
EXTD=YEAR: 2005
EXTT0=
EXTT1=
EXTT2=
EXTT3=
EXTT4=
EXTT5=
EXTT6=
EXTT7=
EXTT8=
EXTT9=
PLAYORDER=
